<svg id="Layer_1" data-name="Layer 1" xmlns="http://www.w3.org/2000/svg" viewBox="0 0 358.3 52.12"><defs><style>.cls-1{isolation:isolate;}.cls-2{fill:#50e3c2;}</style></defs><g class="cls-1"><path class="cls-2" d="M0,40.9H1.7A2.62,2.62,0,0,0,3.6,39V13.7a2.62,2.62,0,0,0-1.9-1.9H0V1H44.5V18.4H33.2l-1.7-5.7H23.6v7.2H34.5V31.5H23.6v8.6h8.1l1.5-7H45.1V51.4H.1V40.9Z"/><path class="cls-2" d="M51.4,40.9h1.7A2.62,2.62,0,0,0,55,39V13.7a2.62,2.62,0,0,0-1.9-1.9H51.4V1H73.9L86.3,23.5h.2V11.8H82.8V1H104V11.8h-1.4a2.62,2.62,0,0,0-1.9,1.9V51.4H83.3L69.5,26.3h-.2V40.9h4V51.3H51.6V40.9Z"/><path class="cls-2" d="M110.1,40.9h1.7a2.62,2.62,0,0,0,1.9-1.9V13.7a2.62,2.62,0,0,0-1.9-1.9h-1.7V1h25.1c20.2,0,28.3,8.1,28.3,24.8s-8.4,25.6-28.9,25.6H110.1Zm24.5-.5c5.6,0,8.5-4.4,8.5-13.8s-2.7-14-8.5-14h-.9V40.5h.9Z"/><path class="cls-2" d="M168.8,40.9h1.7a2.62,2.62,0,0,0,1.9-1.9V13.7a2.62,2.62,0,0,0-1.9-1.9h-1.7V1h28.7V11.8h-5.2V40.1h7.3l1.5-8.3H213V51.4H168.7l.1-10.5Z"/><path class="cls-2" d="M219.2,40.9h1.7a2.62,2.62,0,0,0,1.9-1.9V13.7a2.62,2.62,0,0,0-1.9-1.9h-1.7V1h44.4V18.4H252.3l-1.7-5.7h-7.9v7.2h10.9V31.5H242.7v8.6h8.1l1.5-7h11.9V51.4h-45V40.9Z"/><path class="cls-2" d="M282.6,51.3h-12V35h12.7l1.7,5.6a21.3,21.3,0,0,0,2.7.2c2.6,0,4.8-.8,4.8-3.2,0-2.2-1.8-3-6.3-4.1-7.5-1.9-15.6-4.3-15.6-16.6C270.6,4.4,279.2,0,290,0a45.51,45.51,0,0,1,10.1.9H310V16H297.5l-1.7-5.3a14.79,14.79,0,0,0-2.2-.1c-3.2,0-5,1-5,3.4s2.2,2.9,4.5,3.5c14,3.9,18.4,7.2,18.4,17.2,0,11.3-5.9,17.4-20.1,17.4A34.27,34.27,0,0,1,282.6,51.3Z"/><path class="cls-2" d="M329.5,51.3h-12V35h12.7l1.7,5.6a21.3,21.3,0,0,0,2.7.2c2.6,0,4.8-.8,4.8-3.2,0-2.2-1.8-3-6.3-4.1-7.5-1.9-15.6-4.3-15.6-16.6C317.5,4.4,326.1,0,336.9,0A45.51,45.51,0,0,1,347,.9h9.9V16H344.3l-1.7-5.3a14.79,14.79,0,0,0-2.2-.1c-3.2,0-5,1-5,3.4s2.2,2.9,4.5,3.5c14,3.9,18.4,7.2,18.4,17.2,0,11.3-5.9,17.4-20.1,17.4A34.34,34.34,0,0,1,329.5,51.3Z"/></g></svg>